<svg version="1.1" xmlns="http://www.w3.org/2000/svg" viewBox="-22.251294962855365 -24.19614325968706 46.13270095980211 47.41183381741888" fill="none" stroke="black" stroke-width="0.6%" vector-effect="non-scaling-stroke">
    <path d="M -21.25129 -5.18617 C -21.25 -5.08 -21.25 -4.98 -21.25129 -4.87889 C -21.25 -4.78 -21.25 -4.67 -21.25129 -4.56751 C -21.25 -4.46 -21.25 -4.36 -21.25129 -4.25226 C -21.25 -4.15 -21.25 -4.04 -21.25129 -3.93338 C -21.25 -3.83 -21.25 -3.72 -21.25129 -3.61108 C -21.25 -3.5 -21.25 -3.39 -21.25129 -3.28558 C -21.25 -3.18 -21.25 -3.07 -21.25129 -2.95708 C -21.25 -2.85 -21.25 -2.74 -21.25129 -2.62578 C -21.25 -2.51 -21.25 -2.4 -21.25129 -2.29188 C -21.25 -2.18 -21.25 -2.07 -21.25129 -1.95554 C -21.25 -1.84 -21.25 -1.73 -21.25129 -1.61696 C -21.25 -1.5 -21.25 -1.39 -21.25129 -1.27628 C -21.25 -1.16 -21.25 -1.05 -21.25129 -0.93367 C -21.25 -0.82 -21.25 -0.7 -21.25129 -0.58927 C -21.25 -0.47 -21.25 -0.36 -21.25129 -0.24323 C -21.25 -0.13 -21.25 -0.01 -21.25129 0.10431 C -21.25 0.22 -21.25 0.34 -21.25129 0.45324 C -21.25 0.57 -21.25 0.69 -21.25129 0.80344 C -21.25 0.92 -21.25 1.04 -21.25129 1.1548 C -21.25 1.27 -21.25 1.39 -21.25129 1.50721 C -21.25 1.62 -21.25 1.74 -21.25129 1.86059 C -21.25 1.98 -21.25 2.1 -21.25129 2.21484 C -21.25 2.33 -21.25 2.45 -21.25129 2.5699 C -21.25 2.69 -21.25 2.81 -21.25129 2.92569 C -21.25 3.04 -21.25 3.16 -21.25129 3.28216 C -21.25 3.4 -21.25 3.52 -21.25129 3.63924 C -21.25 3.76 -21.25 3.88 -21.25129 3.9969 C -21.25 4.12 -21.25 4.24 -21.25129 4.35509 C -21.25 4.83 -21.25 5.31 -21.25129 5.7928 C -21.25 9.66 -21.25 13.47 -21.25129 17.95783 C -15.72 21.68 -9.45 22.74 1.56841 21.81866 L 22.8814 3.80869 L 22.8814 -19.33531 L 0.0617 -23.19614 L -21.25129 -5.18617 Z" />
    <path d="M 1.56841 -1.32534 C 1.45 -1.32 1.32 -1.32 1.1989 -1.31209 C 1.08 -1.31 0.95 -1.3 0.82916 -1.29984 C 0.71 -1.3 0.58 -1.29 0.45919 -1.28861 C 0.34 -1.29 0.21 -1.28 0.08901 -1.27847 C -0.03 -1.28 -0.16 -1.27 -0.28137 -1.26945 C -0.4 -1.27 -0.53 -1.26 -0.65194 -1.26162 C -0.78 -1.26 -0.9 -1.26 -1.02269 -1.25503 C -1.15 -1.25 -1.27 -1.25 -1.39357 -1.24973 C -1.52 -1.25 -1.64 -1.25 -1.76457 -1.24578 C -1.89 -1.24 -2.01 -1.24 -2.13566 -1.24324 C -2.26 -1.24 -2.38 -1.24 -2.50679 -1.24218 C -2.63 -1.24 -2.75 -1.24 -2.87792 -1.24265 C -3 -1.24 -3.13 -1.24 -3.249 -1.24472 C -3.37 -1.25 -3.5 -1.25 -3.62 -1.24847 C -3.74 -1.25 -3.87 -1.25 -3.99084 -1.25396 C -4.11 -1.26 -4.24 -1.26 -4.36147 -1.26126 C -4.47 -1.26 -4.58 -1.27 -4.68192 -1.26909 C -4.79 -1.27 -4.9 -1.28 -5.00209 -1.27839 C -5.11 -1.28 -5.22 -1.29 -5.32194 -1.28919 C -5.43 -1.29 -5.53 -1.3 -5.6414 -1.30155 C -5.75 -1.31 -5.85 -1.31 -5.96039 -1.3155 C -6.07 -1.32 -6.17 -1.33 -6.27885 -1.33111 C -6.38 -1.34 -6.49 -1.34 -6.59668 -1.34841 C -6.7 -1.35 -6.81 -1.36 -6.91382 -1.36746 C -7.02 -1.37 -7.12 -1.38 -7.23016 -1.38829 C -7.34 -1.4 -7.44 -1.4 -7.54562 -1.41095 C -7.76 -1.43 -7.96 -1.44 -8.17349 -1.46191 C -8.59 -1.5 -9 -1.54 -9.41403 -1.58739 C -10.11 -1.67 -10.8 -1.77 -11.47155 -1.87828 C -15.56 -2.56 -18.66 -3.85 -21.25129 -5.18617" />
    <path d="M 1.56841 -1.32534 C 1.57 -1.22 1.57 -1.12 1.56841 -1.01806 C 1.57 -0.91 1.57 -0.81 1.56841 -0.70668 C 1.57 -0.6 1.57 -0.5 1.56841 -0.39143 C 1.57 -0.29 1.57 -0.18 1.56841 -0.07255 C 1.57 0.03 1.57 0.14 1.56841 0.24975 C 1.57 0.36 1.57 0.47 1.56841 0.57525 C 1.57 0.68 1.57 0.79 1.56841 0.90375 C 1.57 1.01 1.57 1.12 1.56841 1.23505 C 1.57 1.35 1.57 1.46 1.56841 1.56895 C 1.57 1.68 1.57 1.79 1.56841 1.90528 C 1.57 2.02 1.57 2.13 1.56841 2.24387 C 1.57 2.36 1.57 2.47 1.56841 2.58455 C 1.57 2.7 1.57 2.81 1.56841 2.92716 C 1.57 3.04 1.57 3.16 1.56841 3.27156 C 1.57 3.39 1.57 3.5 1.56841 3.61759 C 1.57 3.73 1.57 3.85 1.56841 3.96514 C 1.57 4.08 1.57 4.2 1.56841 4.31407 C 1.57 4.43 1.57 4.55 1.56841 4.66427 C 1.57 4.78 1.57 4.9 1.56841 5.01563 C 1.57 5.13 1.57 5.25 1.56841 5.36804 C 1.57 5.49 1.57 5.6 1.56841 5.72142 C 1.57 5.84 1.57 5.96 1.56841 6.07567 C 1.57 6.19 1.57 6.31 1.56841 6.43073 C 1.57 6.55 1.57 6.67 1.56841 6.78652 C 1.57 6.91 1.57 7.02 1.56841 7.14299 C 1.57 7.26 1.57 7.38 1.56841 7.50007 C 1.57 7.62 1.57 7.74 1.56841 7.85773 C 1.57 7.98 1.57 8.1 1.56841 8.21592 C 1.57 8.69 1.57 9.17 1.56841 9.65362 C 1.57 13.52 1.57 17.33 1.56841 21.81866" />
    <path d="M -15.01876 2.87814 C -15.02 2.83 -15.02 2.79 -15.01653 2.74049 C -15.02 2.69 -15.01 2.65 -15.00984 2.60424 C -15.01 2.56 -15 2.51 -14.99868 2.46948 C -14.99 2.42 -14.99 2.38 -14.98304 2.3363 C -14.98 2.29 -14.97 2.25 -14.96289 2.20481 C -14.96 2.16 -14.95 2.12 -14.9382 2.07511 C -14.93 2.03 -14.92 1.99 -14.90894 1.94731 C -14.9 1.91 -14.89 1.86 -14.87507 1.82153 C -14.86 1.78 -14.85 1.74 -14.83653 1.69788 C -14.82 1.66 -14.81 1.62 -14.79327 1.57649 C -14.78 1.54 -14.76 1.5 -14.74524 1.45749 C -14.73 1.42 -14.71 1.38 -14.69236 1.341 C -14.67 1.3 -14.65 1.26 -14.63455 1.22716 C -14.61 1.19 -14.59 1.15 -14.57172 1.11611 C -14.55 1.08 -14.53 1.04 -14.50379 1.00801 C -14.48 0.97 -14.46 0.94 -14.43065 0.903 C -14.42 0.88 -14.4 0.86 -14.38576 0.84354 C -14.37 0.82 -14.35 0.8 -14.33906 0.78523 C -14.32 0.77 -14.31 0.75 -14.29053 0.72809 C -14.27 0.71 -14.26 0.69 -14.24013 0.67218 C -14.22 0.65 -14.21 0.64 -14.18786 0.61752 C -14.17 0.6 -14.15 0.58 -14.13368 0.56417 C -14.12 0.55 -14.1 0.53 -14.07757 0.51216 C -14.06 0.5 -14.04 0.48 -14.01951 0.46155 C -14 0.44 -13.98 0.43 -13.95444 0.40841 C -13.94 0.4 -13.92 0.38 -13.90381 0.36948 C -13.89 0.36 -13.87 0.34 -13.85183 0.33158 C -13.83 0.32 -13.82 0.31 -13.79849 0.29474 C -13.78 0.28 -13.76 0.27 -13.74377 0.25898 C -13.73 0.25 -13.71 0.24 -13.68766 0.22435 C -13.67 0.21 -13.65 0.2 -13.63016 0.19087 C -13.61 0.18 -13.59 0.17 -13.57125 0.15858 C -13.55 0.15 -13.53 0.14 -13.51092 0.12751 C -13.49 0.12 -13.47 0.11 -13.44917 0.09771 C -13.43 0.09 -13.41 0.08 -13.38599 0.06921 C -13.36 0.06 -13.34 0.05 -13.32138 0.04204 C -13.3 0.03 -13.28 0.02 -13.25533 0.01626 C -13.23 0.01 -13.21 0 -13.18785 -0.0081 C -13.17 -0.02 -13.14 -0.02 -13.11893 -0.031 C -13.1 -0.04 -13.07 -0.05 -13.04858 -0.0524 C -13.02 -0.06 -13 -0.07 -12.97681 -0.07225 C -12.96 -0.08 -12.94 -0.08 -12.91821 -0.08703 C -12.9 -0.09 -12.88 -0.1 -12.85871 -0.10077 C -12.84 -0.11 -12.82 -0.11 -12.79832 -0.11343 C -12.78 -0.12 -12.76 -0.12 -12.73706 -0.12501 C -12.72 -0.13 -12.7 -0.13 -12.67494 -0.13547 C -12.65 -0.14 -12.63 -0.14 -12.61199 -0.1448 C -12.59 -0.15 -12.57 -0.15 -12.54821 -0.15297 C -12.53 -0.16 -12.51 -0.16 -12.48363 -0.15997 C -12.38 -0.17 -12.28 -0.18 -12.17319 -0.17656 C -11.95 -0.18 -11.71 -0.16 -11.46802 -0.11873 C -11.18 -0.07 -10.9 0.01 -10.62065 0.11155 C -9.54 0.52 -8.7 1.25 -8.20483 2.00854 C -7.17 3.59 -7.32 5.49 -8.72691 6.72481 C -8.75 6.75 -8.78 6.77 -8.81217 6.79451 C -8.84 6.82 -8.87 6.84 -8.90052 6.86202 C -8.93 6.88 -8.96 6.91 -8.99196 6.92722 C -9.02 6.95 -9.05 6.97 -9.08649 6.98996 C -9.12 7.01 -9.15 7.03 -9.18411 7.0501 C -9.22 7.07 -9.25 7.09 -9.2848 7.10747 C -9.32 7.13 -9.35 7.14 -9.38853 7.16192 C -9.42 7.18 -9.46 7.2 -9.49529 7.21328 C -9.52 7.23 -9.55 7.24 -9.57887 7.25033 C -9.61 7.26 -9.64 7.27 -9.66417 7.28538 C -9.69 7.3 -9.72 7.31 -9.75115 7.31835 C -9.78 7.33 -9.81 7.34 -9.83978 7.34915 C -9.87 7.36 -9.9 7.37 -9.93 7.3777 C -9.96 7.39 -9.99 7.4 -10.02178 7.4039 C -10.05 7.41 -10.08 7.42 -10.11505 7.42767 C -10.15 7.44 -10.18 7.44 -10.20975 7.44892 C -10.24 7.46 -10.28 7.46 -10.31171 7.46861 C -10.35 7.47 -10.38 7.48 -10.41509 7.48527 C -10.45 7.49 -10.48 7.49 -10.51977 7.49878 C -10.55 7.5 -10.59 7.51 -10.62563 7.50908 C -10.66 7.51 -10.7 7.51 -10.72994 7.51593 C -10.76 7.52 -10.8 7.52 -10.83511 7.51956 C -10.87 7.52 -10.91 7.52 -10.94097 7.51992 C -10.98 7.52 -11.01 7.52 -11.04738 7.51695 C -11.08 7.52 -11.12 7.51 -11.15416 7.51061 C -11.19 7.51 -11.23 7.5 -11.26116 7.5009 C -11.33 7.49 -11.4 7.48 -11.47504 7.47131 C -11.76 7.42 -12.04 7.34 -12.30241 7.22414 C -12.69 7.05 -13.05 6.82 -13.34718 6.55898 C -14.54 5.49 -15.01 4.08 -15.01876 2.87814 Z" />
    <path d="M -15.01876 13.98726 C -15.02 13.94 -15.02 13.89 -15.01622 13.84038 C -15.01 13.79 -15.01 13.74 -15.0086 13.69511 C -15.01 13.65 -15 13.6 -14.99588 13.55156 C -14.99 13.5 -14.98 13.46 -14.97805 13.40983 C -14.97 13.36 -14.96 13.32 -14.95508 13.27006 C -14.95 13.22 -14.94 13.18 -14.92693 13.13237 C -14.92 13.09 -14.91 13.04 -14.89355 12.99689 C -14.88 12.95 -14.87 12.91 -14.85489 12.86377 C -14.84 12.82 -14.83 12.78 -14.81088 12.73316 C -14.8 12.69 -14.78 12.65 -14.76146 12.6052 C -14.74 12.56 -14.73 12.52 -14.70653 12.48006 C -14.69 12.44 -14.67 12.4 -14.64602 12.35791 C -14.62 12.32 -14.6 12.28 -14.57982 12.2389 C -14.56 12.2 -14.53 12.16 -14.50782 12.12324 C -14.48 12.09 -14.46 12.05 -14.42989 12.0111 C -14.42 11.99 -14.4 11.97 -14.38866 11.95641 C -14.37 11.94 -14.36 11.92 -14.34589 11.90267 C -14.32 11.87 -14.3 11.84 -14.27099 11.81515 C -14.25 11.79 -14.22 11.76 -14.19169 11.73054 C -14.16 11.7 -14.14 11.68 -14.10789 11.64899 C -14.08 11.62 -14.05 11.6 -14.01951 11.57067 C -13.99 11.55 -13.96 11.52 -13.93213 11.50013 C -13.9 11.48 -13.87 11.45 -13.84055 11.43275 C -13.81 11.41 -13.78 11.39 -13.74858 11.37117 C -13.72 11.35 -13.69 11.33 -13.6526 11.31282 C -13.62 11.29 -13.59 11.28 -13.55256 11.25787 C -13.52 11.24 -13.48 11.22 -13.44843 11.20649 C -13.41 11.19 -13.38 11.17 -13.34017 11.15887 C -13.3 11.14 -13.27 11.13 -13.22777 11.1152 C -13.21 11.11 -13.19 11.1 -13.17001 11.09491 C -13.15 11.09 -13.13 11.08 -13.11122 11.07568 C -13.09 11.07 -13.07 11.06 -13.05139 11.05754 C -13.03 11.05 -13.01 11.05 -12.99054 11.04052 C -12.96 11.03 -12.93 11.02 -12.89566 11.01674 C -12.86 11.01 -12.83 11 -12.79843 10.99571 C -12.77 10.99 -12.73 10.98 -12.69893 10.97754 C -12.67 10.97 -12.63 10.97 -12.59721 10.96232 C -12.56 10.96 -12.53 10.95 -12.49336 10.95012 C -12.46 10.95 -12.42 10.94 -12.38747 10.94105 C -12.37 10.94 -12.35 10.94 -12.3338 10.9377 C -12.32 10.94 -12.3 10.94 -12.27966 10.93516 C -12.26 10.93 -12.24 10.93 -12.22508 10.93344 C -12.21 10.93 -12.19 10.93 -12.17006 10.93253 C -12.14 10.93 -12.11 10.93 -12.08627 10.93275 C -12.06 10.93 -12.03 10.93 -12.00163 10.93487 C -11.97 10.94 -11.94 10.94 -11.91619 10.93892 C -11.89 10.94 -11.86 10.94 -11.83007 10.94491 C -11.71 10.95 -11.6 10.97 -11.48035 10.98831 C -11.19 11.04 -10.89 11.12 -10.61131 11.22417 C -9.54 11.63 -8.71 12.35 -8.21434 13.10335 C -7.17 14.69 -7.32 16.6 -8.72691 17.83393 C -8.76 17.86 -8.78 17.88 -8.813 17.90429 C -8.84 17.93 -8.87 17.95 -8.90224 17.97241 C -8.93 17.99 -8.96 18.02 -8.99463 18.03817 C -9.03 18.06 -9.06 18.08 -9.09017 18.10143 C -9.12 18.12 -9.16 18.14 -9.18885 18.16202 C -9.22 18.18 -9.26 18.2 -9.29066 18.2198 C -9.33 18.24 -9.36 18.26 -9.39558 18.27458 C -9.43 18.29 -9.47 18.31 -9.50357 18.3262 C -9.53 18.34 -9.56 18.35 -9.58717 18.36298 C -9.62 18.37 -9.64 18.39 -9.67247 18.39776 C -9.7 18.41 -9.73 18.42 -9.75944 18.43047 C -9.79 18.44 -9.82 18.45 -9.84804 18.46101 C -9.88 18.47 -9.91 18.48 -9.93824 18.48929 C -9.97 18.5 -10 18.51 -10.02998 18.51523 C -10.06 18.52 -10.09 18.53 -10.1232 18.53874 C -10.15 18.55 -10.19 18.55 -10.21784 18.55972 C -10.25 18.57 -10.29 18.57 -10.31978 18.57916 C -10.35 18.59 -10.39 18.59 -10.42313 18.59555 C -10.46 18.6 -10.49 18.6 -10.52778 18.6088 C -10.56 18.61 -10.6 18.62 -10.63359 18.61884 C -10.67 18.62 -10.7 18.62 -10.73525 18.62531 C -10.77 18.63 -10.8 18.63 -10.83772 18.62873 C -10.87 18.63 -10.91 18.63 -10.94085 18.62904 C -10.98 18.63 -11.01 18.63 -11.04449 18.62619 C -11.08 18.62 -11.11 18.62 -11.14849 18.62016 C -11.18 18.62 -11.22 18.61 -11.2527 18.61091 C -11.32 18.6 -11.39 18.59 -11.46108 18.58278 C -11.75 18.53 -12.04 18.45 -12.30967 18.33011 C -12.69 18.16 -13.04 17.94 -13.33362 17.67988 C -14.54 16.61 -15.01 15.19 -15.01876 13.98726 Z" />
    <path d="M 1.56841 -1.32534 L 22.8814 -19.33531" />
    <path d="M -1.62293 -5.70995 L -7.98192 -4.73545 L -8.11271 -4.71657 L -10.60914 -7.18931 L 3.68602 -19.26905 L 10.22573 -20.21298 L 12.72216 -17.74024 L -1.62293 -5.70995 Z" />
    <path d="M 10.22573 -15.64665 L 10.22573 -20.21298" />
    <path d="M 3.68602 -10.16222 L 3.68602 -19.26905" />
    <path d="M -13.10097 1.25756 A 4.1 3.46459 49.80142 0 0 -7.87214 5.62562" />
    <path d="M -12.83356 -0.10619 A 4.1 3.46459 49.80142 0 0 -13.10097 1.25756" />
    <path d="M -13.10097 12.36669 A 4.1 3.46459 49.80142 0 0 -7.87214 16.73475" />
    <path d="M -12.83356 11.00293 A 4.1 3.46459 49.80142 0 0 -13.10097 12.36669" />
</svg>